<svg id="ec514ccb-ec5a-4a5e-ae20-e534d8653cef" data-name="Шар 1" xmlns="http://www.w3.org/2000/svg"
     viewBox="0 0 1920 233.29">
    <defs>
        <style>.ac90362d-d8e7-4b29-93d2-d98c8f8dffd1{fill:none;}</style>
    </defs>
    <path class="ac90362d-d8e7-4b29-93d2-d98c8f8dffd1"
          d="M95.27,233.29c2.48,0,4.92-.11,7.33-.29H88C90.4,233.18,92.82,233.29,95.27,233.29Z"/>
    <path class="ac90362d-d8e7-4b29-93d2-d98c8f8dffd1"
          d="M139.05,148.75a44.59,44.59,0,0,0-3.46-17.88,42.32,42.32,0,0,0-9.42-13.76,41,41,0,0,0-13.92-8.83,48.47,48.47,0,0,0-33.95,0,40,40,0,0,0-13.84,8.83,41.76,41.76,0,0,0-9.26,13.76,45.62,45.62,0,0,0-3.38,17.88A43.49,43.49,0,0,0,55.2,166a42.71,42.71,0,0,0,9.26,13.76,43.58,43.58,0,0,0,30.81,12.57,45.74,45.74,0,0,0,17-3.14,42.3,42.3,0,0,0,13.92-8.83,41.28,41.28,0,0,0,9.42-13.76A44.72,44.72,0,0,0,139.05,148.75Z"/>
    <path class="ac90362d-d8e7-4b29-93d2-d98c8f8dffd1"
          d="M1920,0H0V233H88a88.4,88.4,0,0,1-26.92-6.22,89.55,89.55,0,0,1-28-17.8,82.72,82.72,0,0,1-18.91-26.79,81.06,81.06,0,0,1-6.92-33.44A82.42,82.42,0,0,1,33.07,88.08a88.48,88.48,0,0,1,28-17.73,90.79,90.79,0,0,1,34.19-6.43A96.21,96.21,0,0,1,129.63,70a83.75,83.75,0,0,1,27.93,17.2A81.46,81.46,0,0,1,176.39,114a85.15,85.15,0,0,1,6.92,34.79,81.06,81.06,0,0,1-6.92,33.44A83.42,83.42,0,0,1,157.56,209a89.62,89.62,0,0,1-55,24H1920Z"/>
    <path style="fill:#f6f6f6;" class="ac90362d-d8e7-4b29-93d2-d98c8f8dffd1"
          d="M157.56,209a83.42,83.42,0,0,0,18.83-26.79,81.06,81.06,0,0,0,6.92-33.44A85.15,85.15,0,0,0,176.39,114a81.46,81.46,0,0,0-18.83-26.78A83.75,83.75,0,0,0,129.63,70a96.21,96.21,0,0,0-34.36-6.06,90.79,90.79,0,0,0-34.19,6.43,88.48,88.48,0,0,0-28,17.73A82.42,82.42,0,0,0,7.24,148.75a81.06,81.06,0,0,0,6.92,33.44A82.72,82.72,0,0,0,33.07,209a89.55,89.55,0,0,0,28,17.8A88.4,88.4,0,0,0,88,233h14.6a89.62,89.62,0,0,0,55-24Zm-45.31-19.83a45.74,45.74,0,0,1-17,3.14,43.58,43.58,0,0,1-30.81-12.57A42.71,42.71,0,0,1,55.2,166a43.49,43.49,0,0,1-3.38-17.21,45.62,45.62,0,0,1,3.38-17.88,41.76,41.76,0,0,1,9.26-13.76,40,40,0,0,1,13.84-8.83,48.47,48.47,0,0,1,34,0,41,41,0,0,1,13.92,8.83,42.32,42.32,0,0,1,9.42,13.76,47.75,47.75,0,0,1,0,35.69,41.28,41.28,0,0,1-9.42,13.76A42.3,42.3,0,0,1,112.25,189.15Z"/>
    <path class="ac90362d-d8e7-4b29-93d2-d98c8f8dffd1" d="M0,0V233H1920V0ZM251.87,230.3H207.61V6.31h44.26Z"/>
    <rect style="fill:#f6f6f6;" class="ac90362d-d8e7-4b29-93d2-d98c8f8dffd1" x="207.61" y="6.31" width="44.26" height="223.99"/>
    <path class="ac90362d-d8e7-4b29-93d2-d98c8f8dffd1"
          d="M364.2,233.29q3.78,0,7.49-.29H356.78C359.23,233.18,361.69,233.29,364.2,233.29Z"/>
    <path class="ac90362d-d8e7-4b29-93d2-d98c8f8dffd1"
          d="M370.4,105.51a61.91,61.91,0,0,0-6.2-.3,46.94,46.94,0,0,0-17,3.07,40.13,40.13,0,0,0-23.09,22.44,45.85,45.85,0,0,0-3.38,18c0,1.5.08,3.2.24,5.09a55.7,55.7,0,0,0,.8,5.76,57.5,57.5,0,0,0,1.37,5.61,20.15,20.15,0,0,0,2.09,4.79l51.18-63.14A26.88,26.88,0,0,0,370.4,105.51Z"/>
    <path class="ac90362d-d8e7-4b29-93d2-d98c8f8dffd1"
          d="M1920,0H0V233H356.78A91.29,91.29,0,0,1,330,227a87,87,0,0,1-28-17.51,81.77,81.77,0,0,1-25.83-60.75A85.07,85.07,0,0,1,283.09,114,79.55,79.55,0,0,1,302,87.26a86.27,86.27,0,0,1,28-17.21,94.8,94.8,0,0,1,34.2-6.13,93.28,93.28,0,0,1,40.64,9.27,90.1,90.1,0,0,1,17.3,11A83.83,83.83,0,0,1,436.3,98.78L353.9,191.1a26.68,26.68,0,0,0,5.15,1c1.72.15,3.43.22,5.15.22a46.19,46.19,0,0,0,23.58-6.36,40.65,40.65,0,0,0,9.33-7.48,39,39,0,0,0,6.68-9.8L436,198.73a83.3,83.3,0,0,1-14.08,14.51A89.84,89.84,0,0,1,385.2,231a93.46,93.46,0,0,1-13.51,2H1920Z"/>
    <path style="fill:#f6f6f6;" class="ac90362d-d8e7-4b29-93d2-d98c8f8dffd1"
          d="M404.68,224.16a89.22,89.22,0,0,0,17.22-10.92A83.3,83.3,0,0,0,436,198.73l-32.19-30.08a39,39,0,0,1-6.68,9.8,40.65,40.65,0,0,1-9.33,7.48,46.19,46.19,0,0,1-23.58,6.36c-1.72,0-3.43-.07-5.15-.22a26.68,26.68,0,0,1-5.15-1l82.4-92.32a83.83,83.83,0,0,0-14.16-14.59,90.1,90.1,0,0,0-17.3-11,93.28,93.28,0,0,0-40.64-9.27A94.8,94.8,0,0,0,330,70.05a86.27,86.27,0,0,0-28,17.21A79.55,79.55,0,0,0,283.09,114a85.07,85.07,0,0,0-6.92,34.71A81.77,81.77,0,0,0,302,209.5,87,87,0,0,0,330,227a91.29,91.29,0,0,0,26.78,6h14.91a93.46,93.46,0,0,0,13.51-2A89.42,89.42,0,0,0,404.68,224.16ZM325.25,170a20.15,20.15,0,0,1-2.09-4.79,57.5,57.5,0,0,1-1.37-5.61,55.7,55.7,0,0,1-.8-5.76c-.16-1.89-.24-3.59-.24-5.09a45.85,45.85,0,0,1,3.38-18,40.13,40.13,0,0,1,23.09-22.44,46.94,46.94,0,0,1,17-3.07,61.91,61.91,0,0,1,6.2.3,26.88,26.88,0,0,1,6,1.35Z"/>
    <path class="ac90362d-d8e7-4b29-93d2-d98c8f8dffd1"
          d="M535.92,233.29c2.51,0,5.17-.1,8-.29H528.16C530.72,233.18,533.3,233.29,535.92,233.29Z"/>
    <path class="ac90362d-d8e7-4b29-93d2-d98c8f8dffd1"
          d="M578.09,220.12a18.93,18.93,0,0,1-7.41,6.36,54,54,0,0,1-10.7,4,74,74,0,0,1-12.23,2.17c-1.32.13-2.61.22-3.88.31h28.78c.24-.4.47-.8.69-1.21A59.87,59.87,0,0,0,578.09,220.12Z"/>
    <path class="ac90362d-d8e7-4b29-93d2-d98c8f8dffd1"
          d="M1920,0H0V233H528.16a97.3,97.3,0,0,1-26.44-5.54,84.19,84.19,0,0,1-28-16.69,77.11,77.11,0,0,1-18.91-26.56q-6.93-15.71-6.92-35.46a81.76,81.76,0,0,1,6.92-33.66,83.16,83.16,0,0,1,18.91-26.93,87.77,87.77,0,0,1,28-17.81,90.88,90.88,0,0,1,34.2-6.43,72,72,0,0,1,16.58,1.94,90,90,0,0,1,15.93,5.39,101.1,101.1,0,0,1,14.73,8.08,121.23,121.23,0,0,1,13.11,10l17.06-19H624V210.1a75,75,0,0,1-3.5,22.9H1920Z"/>
    <path class="ac90362d-d8e7-4b29-93d2-d98c8f8dffd1"
          d="M566.82,118.6a46.6,46.6,0,0,0-13.92-9.72,40.19,40.19,0,0,0-17-3.67,50.26,50.26,0,0,0-17,2.84,38.13,38.13,0,0,0-23.09,22.07,48.2,48.2,0,0,0-3.38,18.63,45.78,45.78,0,0,0,3.38,18,40.19,40.19,0,0,0,23.09,22.45,46.94,46.94,0,0,0,17,3.06,40.18,40.18,0,0,0,17-3.66A46.48,46.48,0,0,0,576.24,165a39.82,39.82,0,0,0,0-32.47A46.38,46.38,0,0,0,566.82,118.6Z"/>
    <path style="fill:#f6f6f6;" class="ac90362d-d8e7-4b29-93d2-d98c8f8dffd1"
          d="M624,70.35H613.33l-17.06,19a121.23,121.23,0,0,0-13.11-10,101.1,101.1,0,0,0-14.73-8.08,90,90,0,0,0-15.93-5.39,72,72,0,0,0-16.58-1.94,90.88,90.88,0,0,0-34.2,6.43,87.77,87.77,0,0,0-28,17.81,83.16,83.16,0,0,0-18.91,26.93,81.76,81.76,0,0,0-6.92,33.66q0,19.75,6.92,35.46a77.11,77.11,0,0,0,18.91,26.56,84.19,84.19,0,0,0,28,16.69A97.3,97.3,0,0,0,528.16,233h15.71c1.27-.09,2.56-.18,3.88-.31A74,74,0,0,0,560,230.52a54,54,0,0,0,10.7-4,18.93,18.93,0,0,0,7.41-6.36,59.87,59.87,0,0,1-4.75,11.67c-.22.41-.45.81-.69,1.21h47.8a75,75,0,0,0,3.5-22.9ZM576.24,165a46.48,46.48,0,0,1-23.34,23.64,40.18,40.18,0,0,1-17,3.66,46.94,46.94,0,0,1-17-3.06,40.19,40.19,0,0,1-23.09-22.45,45.78,45.78,0,0,1-3.38-18,48.2,48.2,0,0,1,3.38-18.63,38.13,38.13,0,0,1,23.09-22.07,50.26,50.26,0,0,1,17-2.84,40.19,40.19,0,0,1,17,3.67,46.38,46.38,0,0,1,23.34,23.64,39.82,39.82,0,0,1,0,32.47Z"/>
    <path class="ac90362d-d8e7-4b29-93d2-d98c8f8dffd1"
          d="M0,0V233H1920V0ZM817.72,230.3H767.19l-34.93-58.21L701.69,209.8v20.5H657.43V6.31h44.26V147.56l65.5-77.21h50.53l-57.13,66.73Z"/>
    <polygon style="fill:#f6f6f6;" class="ac90362d-d8e7-4b29-93d2-d98c8f8dffd1"
             points="767.19 70.35 701.69 147.56 701.69 6.31 657.43 6.31 657.43 230.3 701.69 230.3 701.69 209.8 732.26 172.09 767.19 230.3 817.72 230.3 760.59 137.08 817.72 70.35 767.19 70.35"/>
    <path class="ac90362d-d8e7-4b29-93d2-d98c8f8dffd1"
          d="M0,0V233H1920V0ZM951.14,111.05H912.35a35.52,35.52,0,0,0-13,2.39A33.06,33.06,0,0,0,888.7,120a30.49,30.49,0,0,0-7.09,9.87A29.13,29.13,0,0,0,879,142V230.3H835.1V70.05h10.63l14.48,19a78.16,78.16,0,0,1,24.14-13.84,82.15,82.15,0,0,1,28-4.86h38.79Z"/>
    <path style="fill:#f6f6f6;" class="ac90362d-d8e7-4b29-93d2-d98c8f8dffd1"
          d="M884.35,75.21a78.16,78.16,0,0,0-24.14,13.84l-14.48-19H835.1V230.3H879V142a29.13,29.13,0,0,1,2.57-12.12A30.49,30.49,0,0,1,888.7,120a33.06,33.06,0,0,1,10.62-6.59,35.52,35.52,0,0,1,13-2.39h38.79V70.35H912.35A82.15,82.15,0,0,0,884.35,75.21Z"/>
    <path class="ac90362d-d8e7-4b29-93d2-d98c8f8dffd1"
          d="M1045.13,233.29c1.89,0,3.76-.11,5.63-.29h-12.9Q1041.45,233.29,1045.13,233.29Z"/>
    <path class="ac90362d-d8e7-4b29-93d2-d98c8f8dffd1"
          d="M1920,0H0V233H1037.86a82.56,82.56,0,0,1-22.67-4.95,74.76,74.76,0,0,1-24.54-14.88,68.66,68.66,0,0,1-16.58-23.5,76.91,76.91,0,0,1-6-31V70.05h43.77v88.58a37.21,37.21,0,0,0,2.66,14.44,31.29,31.29,0,0,0,7.16,10.69,30.13,30.13,0,0,0,10.54,6.59,37,37,0,0,0,13,2.24,29,29,0,0,0,12.79-2.92,35.43,35.43,0,0,0,10.54-7.7,36.51,36.51,0,0,0,7.08-10.85,31.57,31.57,0,0,0,2.58-12.49V70.05h43.93V230.3h-10.62L1097,211.59a116.17,116.17,0,0,1-11.35,8.46,86.72,86.72,0,0,1-12.63,6.88,81.68,81.68,0,0,1-13.6,4.64,58.59,58.59,0,0,1-8.61,1.43H1920Z"/>
    <path style="fill:#f6f6f6;" class="ac90362d-d8e7-4b29-93d2-d98c8f8dffd1"
          d="M1073,226.93a86.72,86.72,0,0,0,12.63-6.88,116.17,116.17,0,0,0,11.35-8.46l14.48,18.71h10.62V70.05h-43.93v88.58a31.57,31.57,0,0,1-2.58,12.49,36.51,36.51,0,0,1-7.08,10.85,35.43,35.43,0,0,1-10.54,7.7,29,29,0,0,1-12.79,2.92,37,37,0,0,1-13-2.24,30.13,30.13,0,0,1-10.54-6.59,31.29,31.29,0,0,1-7.16-10.69,37.21,37.21,0,0,1-2.66-14.44V70.05H968v88.58a76.91,76.91,0,0,0,6,31,68.66,68.66,0,0,0,16.58,23.5,74.76,74.76,0,0,0,24.54,14.88,82.56,82.56,0,0,0,22.67,4.95h12.9a58.59,58.59,0,0,0,8.61-1.43A81.68,81.68,0,0,0,1073,226.93Z"/>
    <path class="ac90362d-d8e7-4b29-93d2-d98c8f8dffd1"
          d="M1234.07,233.29q3.78,0,7.48-.29H1226.7C1229.13,233.18,1231.58,233.29,1234.07,233.29Z"/>
    <path class="ac90362d-d8e7-4b29-93d2-d98c8f8dffd1"
          d="M1920,0H0V233H1226.7a91,91,0,0,1-54.84-23.5A82.52,82.52,0,0,1,1153,183.62a74.1,74.1,0,0,1-6.92-31.73,85.89,85.89,0,0,1,6.92-34.41,88.32,88.32,0,0,1,18.91-27.9,89.64,89.64,0,0,1,28-18.78,85.61,85.61,0,0,1,34.2-6.88,88.4,88.4,0,0,1,21.16,2.54,89.7,89.7,0,0,1,19.8,7.41,85.33,85.33,0,0,1,17.38,11.89,75.55,75.55,0,0,1,13.76,16.16L1274,132a39.7,39.7,0,0,0-6.6-11.3,43.45,43.45,0,0,0-9.41-8.46,42.32,42.32,0,0,0-11.35-5.23,44.23,44.23,0,0,0-12.55-1.8,42.42,42.42,0,0,0-17,3.44,41.65,41.65,0,0,0-13.84,9.65A45.91,45.91,0,0,0,1194,133a50.83,50.83,0,0,0-3.38,18.85,37.16,37.16,0,0,0,3.38,15.72,41.37,41.37,0,0,0,9.26,12.86,42.76,42.76,0,0,0,13.84,8.68,47.54,47.54,0,0,0,29.37,1.5,46.26,46.26,0,0,0,11.18-4.72,40.7,40.7,0,0,0,9.34-7.48,39.28,39.28,0,0,0,6.68-9.8l32.18,30.08a82.94,82.94,0,0,1-14.08,14.51A89.88,89.88,0,0,1,1255.07,231a93.6,93.6,0,0,1-13.52,2H1920Z"/>
    <path style="fill:#f6f6f6;" class="ac90362d-d8e7-4b29-93d2-d98c8f8dffd1"
          d="M1274.54,224.16a89.22,89.22,0,0,0,17.22-10.92,82.94,82.94,0,0,0,14.08-14.51l-32.18-30.08a39.28,39.28,0,0,1-6.68,9.8,40.7,40.7,0,0,1-9.34,7.48,46.12,46.12,0,0,1-23.57,6.36,45.74,45.74,0,0,1-17-3.14,42.76,42.76,0,0,1-13.84-8.68,41.37,41.37,0,0,1-9.26-12.86,37.16,37.16,0,0,1-3.38-15.72A50.83,50.83,0,0,1,1194,133a45.91,45.91,0,0,1,9.26-14.74,41.65,41.65,0,0,1,13.84-9.65,42.42,42.42,0,0,1,17-3.44,44.23,44.23,0,0,1,12.55,1.8,42.32,42.32,0,0,1,11.35,5.23,43.45,43.45,0,0,1,9.41,8.46A39.7,39.7,0,0,1,1274,132l32.19-30.08a75.55,75.55,0,0,0-13.76-16.16A85.33,85.33,0,0,0,1275,73.87a89.7,89.7,0,0,0-19.8-7.41,88.4,88.4,0,0,0-21.16-2.54,85.61,85.61,0,0,0-34.2,6.88,89.64,89.64,0,0,0-28,18.78,88.32,88.32,0,0,0-18.91,27.9,85.89,85.89,0,0,0-6.92,34.41,74.1,74.1,0,0,0,6.92,31.73,82.52,82.52,0,0,0,18.91,25.88A91,91,0,0,0,1226.7,233h14.85a93.6,93.6,0,0,0,13.52-2A89.52,89.52,0,0,0,1274.54,224.16Z"/>
    <path class="ac90362d-d8e7-4b29-93d2-d98c8f8dffd1"
          d="M0,0V233H1920V0ZM1481.59,230.3h-44.26V138.73h.32a28.3,28.3,0,0,0-2.57-11.9A31,31,0,0,0,1428,117a33.93,33.93,0,0,0-23.18-9,35.52,35.52,0,0,0-13,2.4,33.36,33.36,0,0,0-10.63,6.58,31,31,0,0,0-7.08,9.8,28.3,28.3,0,0,0-2.57,11.9V230.3h-43.94V6.31h43.94V77.08a52.79,52.79,0,0,1,16.25-7.85,63.46,63.46,0,0,1,17.06-2.32,79.79,79.79,0,0,1,29.94,5.61,76.72,76.72,0,0,1,24.38,15.41,73.46,73.46,0,0,1,16.41,22.89,65.78,65.78,0,0,1,6,27.91Z"/>
    <path style="fill:#f6f6f6;" class="ac90362d-d8e7-4b29-93d2-d98c8f8dffd1"
          d="M1459.14,87.93a76.72,76.72,0,0,0-24.38-15.41,79.79,79.79,0,0,0-29.94-5.61,63.46,63.46,0,0,0-17.06,2.32,52.79,52.79,0,0,0-16.25,7.85V6.31h-43.94v224h43.94V138.73a28.3,28.3,0,0,1,2.57-11.9,31,31,0,0,1,7.08-9.8,33.36,33.36,0,0,1,10.63-6.58,35.52,35.52,0,0,1,13-2.4,33.93,33.93,0,0,1,23.18,9,31,31,0,0,1,7.08,9.8,28.3,28.3,0,0,1,2.57,11.9h-.32V230.3h44.26V138.73a65.78,65.78,0,0,0-6-27.91A73.46,73.46,0,0,0,1459.14,87.93Z"/>
    <path class="ac90362d-d8e7-4b29-93d2-d98c8f8dffd1"
          d="M1591.67,233.29q3.22,0,6.4-.29h-14.28C1586.38,233.18,1589,233.29,1591.67,233.29Z"/>
    <path class="ac90362d-d8e7-4b29-93d2-d98c8f8dffd1"
          d="M1920,0H0V233H1583.79a99,99,0,0,1-26.32-5.4,82.19,82.19,0,0,1-28-16.53,77.11,77.11,0,0,1-18.91-26.56q-6.93-15.7-6.92-35.76a83.85,83.85,0,0,1,6.92-34.34,81.35,81.35,0,0,1,18.91-26.85,86.16,86.16,0,0,1,28-17.44,93.92,93.92,0,0,1,34.2-6.2,72.09,72.09,0,0,1,16.58,1.94,90,90,0,0,1,15.93,5.39,100.47,100.47,0,0,1,14.72,8.08,120.38,120.38,0,0,1,13.12,10l17.06-19h10.62v160h-10.62l-17.06-22a137.47,137.47,0,0,1-13.28,9.8A98.74,98.74,0,0,1,1624,226a94.94,94.94,0,0,1-15.85,5.32,72.31,72.31,0,0,1-10.1,1.65H1920Z"/>
    <path class="ac90362d-d8e7-4b29-93d2-d98c8f8dffd1"
          d="M1622.57,178.9A46.24,46.24,0,0,0,1632,165a39.82,39.82,0,0,0,0-32.47,46.31,46.31,0,0,0-23.33-23.64,40.19,40.19,0,0,0-17-3.67,50.26,50.26,0,0,0-17,2.84,38.13,38.13,0,0,0-23.09,22.07,48.2,48.2,0,0,0-3.38,18.63,48.13,48.13,0,0,0,3.38,18.63,38.13,38.13,0,0,0,23.09,22.07,50,50,0,0,0,17,2.84,40.18,40.18,0,0,0,17-3.66A46.81,46.81,0,0,0,1622.57,178.9Z"/>
    <path style="fill:#f6f6f6;" class="ac90362d-d8e7-4b29-93d2-d98c8f8dffd1"
          d="M1624,226a98.74,98.74,0,0,0,14.72-7.93,137.47,137.47,0,0,0,13.28-9.8l17.06,22h10.62v-160h-10.62l-17.06,19a120.38,120.38,0,0,0-13.12-10,100.47,100.47,0,0,0-14.72-8.08,90,90,0,0,0-15.93-5.39,72.09,72.09,0,0,0-16.58-1.94,93.92,93.92,0,0,0-34.2,6.2,86.16,86.16,0,0,0-28,17.44,81.35,81.35,0,0,0-18.91,26.85,83.85,83.85,0,0,0-6.92,34.34q0,20.06,6.92,35.76a77.11,77.11,0,0,0,18.91,26.56,82.19,82.19,0,0,0,28,16.53,99,99,0,0,0,26.32,5.4h14.28a72.31,72.31,0,0,0,10.1-1.65A94.94,94.94,0,0,0,1624,226Zm-49.33-36.58a38.13,38.13,0,0,1-23.09-22.07,48.13,48.13,0,0,1-3.38-18.63,48.2,48.2,0,0,1,3.38-18.63,38.13,38.13,0,0,1,23.09-22.07,50.26,50.26,0,0,1,17-2.84,40.19,40.19,0,0,1,17,3.67A46.31,46.31,0,0,1,1632,132.52a39.82,39.82,0,0,1,0,32.47,46.24,46.24,0,0,1-9.41,13.91,46.81,46.81,0,0,1-13.92,9.73,40.18,40.18,0,0,1-17,3.66A50,50,0,0,1,1574.69,189.45Z"/>
    <path class="ac90362d-d8e7-4b29-93d2-d98c8f8dffd1"
          d="M1788,233.29a39.67,39.67,0,0,0,4.74-.29h-12Q1784.32,233.29,1788,233.29Z"/>
    <path class="ac90362d-d8e7-4b29-93d2-d98c8f8dffd1"
          d="M1920,0H0V233H1780.75a82.48,82.48,0,0,1-22.67-4.95,74.55,74.55,0,0,1-24.54-14.88,68.53,68.53,0,0,1-16.58-23.5,76.91,76.91,0,0,1-6-31V70.05h43.78v88.58a38.48,38.48,0,0,0,2.65,14.89,30.54,30.54,0,0,0,7.17,10.62,29,29,0,0,0,10.54,6.36,39.12,39.12,0,0,0,13,2.09,29,29,0,0,0,12.8-2.92,35.68,35.68,0,0,0,10.54-7.7,36.7,36.7,0,0,0,7.08-10.85,31.74,31.74,0,0,0,2.57-12.49V70.05h44.26V210.1a77,77,0,0,1-3.64,22.9H1920Z"/>
    <path class="ac90362d-d8e7-4b29-93d2-d98c8f8dffd1"
          d="M1803.06,230.45a43.32,43.32,0,0,1-10.31,2.55h20.3a43.81,43.81,0,0,0,4.74-8.24Q1810.55,227.61,1803.06,230.45Z"/>
    <path style="fill:#f6f6f6;" class="ac90362d-d8e7-4b29-93d2-d98c8f8dffd1"
          d="M1865.26,70.05H1821v88.58a31.74,31.74,0,0,1-2.57,12.49,36.7,36.7,0,0,1-7.08,10.85,35.68,35.68,0,0,1-10.54,7.7,29,29,0,0,1-12.8,2.92,39.12,39.12,0,0,1-13-2.09,29,29,0,0,1-10.54-6.36,30.54,30.54,0,0,1-7.17-10.62,38.48,38.48,0,0,1-2.65-14.89V70.05h-43.78v88.58a76.91,76.91,0,0,0,6,31,68.53,68.53,0,0,0,16.58,23.5,74.55,74.55,0,0,0,24.54,14.88,82.48,82.48,0,0,0,22.67,4.95h12a43.32,43.32,0,0,0,10.31-2.55q7.49-2.85,14.73-5.69a43.81,43.81,0,0,1-4.74,8.24h48.57a77,77,0,0,0,3.64-22.9Z"/>
    <path class="ac90362d-d8e7-4b29-93d2-d98c8f8dffd1"
          d="M1907.23,76.93a15.71,15.71,0,0,0-4.91-3.3,14.86,14.86,0,0,0-6-1.22,15,15,0,0,0-6,1.22,15.78,15.78,0,0,0-4.9,3.3,15.54,15.54,0,0,0-3.3,4.91,15.19,15.19,0,0,0,0,11.93,15.37,15.37,0,0,0,3.3,4.87,15.93,15.93,0,0,0,4.9,3.29,15,15,0,0,0,6,1.21,14.85,14.85,0,0,0,6-1.21,15.86,15.86,0,0,0,4.91-3.29,15.53,15.53,0,0,0,3.3-4.87,15.19,15.19,0,0,0,0-11.93A15.71,15.71,0,0,0,1907.23,76.93Zm-17.91,14a7.61,7.61,0,0,0,4.13,4.11,7.74,7.74,0,0,0,3,.6A7.68,7.68,0,0,0,1902,93.3l2.5,4.18a12.33,12.33,0,0,1-3.76,2.25,12.14,12.14,0,0,1-4.29.77,12,12,0,0,1-4.89-1,13,13,0,0,1-4-2.71,12.53,12.53,0,0,1-2.69-4,12.49,12.49,0,0,1,0-9.7,12.6,12.6,0,0,1,6.68-6.68,12.52,12.52,0,0,1,9.18-.21,13,13,0,0,1,3.76,2.18l-2.5,4.25a7.81,7.81,0,0,0-2.53-1.75,7.31,7.31,0,0,0-3-.64,7.58,7.58,0,0,0-3,.62,8,8,0,0,0-2.48,1.65,7.31,7.31,0,0,0-1.65,2.44,7.75,7.75,0,0,0,0,6Z"/>
    <path class="ac90362d-d8e7-4b29-93d2-d98c8f8dffd1"
          d="M0,0V233H1920V0ZM1915.17,95.69a20.49,20.49,0,0,1-4.37,6.5,21,21,0,0,1-6.51,4.4,20.41,20.41,0,0,1-15.89,0,20.75,20.75,0,0,1-10.9-10.9,20.41,20.41,0,0,1,0-15.89,20.84,20.84,0,0,1,4.4-6.51,20.49,20.49,0,0,1,6.5-4.37,20.53,20.53,0,0,1,15.89,0,20.31,20.31,0,0,1,10.88,10.88,20.53,20.53,0,0,1,0,15.89Z"/>
    <path style="fill:#f6f6f6;" class="ac90362d-d8e7-4b29-93d2-d98c8f8dffd1"
          d="M1891,82.52a8,8,0,0,1,2.48-1.65,7.58,7.58,0,0,1,3-.62,7.31,7.31,0,0,1,3,.64,7.81,7.81,0,0,1,2.53,1.75l2.5-4.25a13,13,0,0,0-3.76-2.18,12.52,12.52,0,0,0-9.18.21,12.6,12.6,0,0,0-6.68,6.68,12.49,12.49,0,0,0,0,9.7,12.53,12.53,0,0,0,2.69,4,13,13,0,0,0,4,2.71,12,12,0,0,0,4.89,1,12.14,12.14,0,0,0,4.29-.77,12.33,12.33,0,0,0,3.76-2.25L1902,93.3a7.68,7.68,0,0,1-5.55,2.35,7.74,7.74,0,0,1-3-.6,7.61,7.61,0,0,1-4.13-4.11,7.75,7.75,0,0,1,0-6A7.31,7.31,0,0,1,1891,82.52Z"/>
    <path style="fill:#f6f6f6;" class="ac90362d-d8e7-4b29-93d2-d98c8f8dffd1"
          d="M1910.8,73.29a20.54,20.54,0,0,0-6.51-4.37,20.53,20.53,0,0,0-15.89,0,20.49,20.49,0,0,0-6.5,4.37,20.84,20.84,0,0,0-4.4,6.51,20.41,20.41,0,0,0,0,15.89,20.75,20.75,0,0,0,10.9,10.9,20.41,20.41,0,0,0,15.89,0,21,21,0,0,0,6.51-4.4,20.49,20.49,0,0,0,4.37-6.5,20.53,20.53,0,0,0,0-15.89A20.43,20.43,0,0,0,1910.8,73.29Zm-.27,20.48a15.53,15.53,0,0,1-3.3,4.87,15.86,15.86,0,0,1-4.91,3.29,14.85,14.85,0,0,1-6,1.21,15,15,0,0,1-6-1.21,15.93,15.93,0,0,1-4.9-3.29,15.37,15.37,0,0,1-3.3-4.87,15.19,15.19,0,0,1,0-11.93,15.54,15.54,0,0,1,3.3-4.91,15.78,15.78,0,0,1,4.9-3.3,15,15,0,0,1,6-1.22,14.86,14.86,0,0,1,6,1.22,15.37,15.37,0,0,1,8.21,8.21,15.19,15.19,0,0,1,0,11.93Z"/>
</svg>
